<svg xmlns="http://www.w3.org/2000/svg" xmlns:xlink="http://www.w3.org/1999/xlink" viewBox="0 0 777 641"><defs><style>.a,.b{fill:none;}.b{stroke:#fff;stroke-linecap:round;stroke-miterlimit:10;stroke-width:33.13px;}.c{fill:#fff;}.d{fill:#e3edff;}.e{clip-path:url(#a);}.f{fill:#534741;}.g{opacity:0.3;}.h{clip-path:url(#b);}</style><clipPath id="a"><ellipse class="a" cx="389" cy="149.5" rx="223" ry="65.5"/></clipPath><clipPath id="b"><ellipse class="a" cx="389" cy="122.5" rx="203.23" ry="38.5"/></clipPath></defs><title>coffee</title><path class="b" d="M658.62,417.51l-54.24,13.4c-50.74,12.53-91.88-14.15-91.88-59.61V251.06c0-45.45,41.14-92.46,91.88-105l54.24-13.4c50.74-12.54,91.88,14.15,91.88,59.61V312.5C750.5,358,709.36,405,658.62,417.51Z"/><ellipse class="c" cx="389" cy="95.5" rx="223" ry="65.5"/><path class="c" d="M632,545.5c0,19.66-14.2,33.65-26.12,41.92-13,9-31,17-53.56,23.58-43.9,12.9-101.9,20-163.32,20s-119.42-7.1-163.32-20c-22.54-6.62-40.56-14.55-53.56-23.58C160.2,579.15,146,565.16,146,545.5V95H632Z"/><path class="c" d="M389,181c-61.42,0-119.42-7.1-163.32-20-22.54-6.62-40.56-14.55-53.56-23.58C160.2,129.15,146,115.16,146,95.5s14.2-33.65,26.12-41.92c13-9,31-17,53.56-23.58C269.58,17.1,327.58,10,389,10s119.42,7.1,163.32,20c22.54,6.62,40.56,14.55,53.56,23.58C617.8,61.85,632,75.84,632,95.5s-14.2,33.65-26.12,41.92c-13,9-31,17-53.56,23.58C508.42,173.9,450.42,181,389,181Z"/><ellipse class="d" cx="389" cy="95.5" rx="223" ry="65.5"/><g class="e"><ellipse class="f" cx="389" cy="95.5" rx="223" ry="65.5"/></g><g class="g"><g class="h"><rect class="c" x="277.19" y="-90.86" width="67" height="304" transform="translate(48.02 -115.7) rotate(22.82)"/><rect class="c" x="358.2" y="-61.19" width="26" height="304" transform="translate(64.26 -136.84) rotate(22.82)"/></g></g></svg>
