<svg xmlns="http://www.w3.org/2000/svg" xmlns:xlink="http://www.w3.org/1999/xlink" viewBox="0 0 641 641"><defs><style>.a,.b{fill:none;}.b{stroke:#fff;stroke-linecap:round;stroke-miterlimit:10;stroke-width:33.13px;}.c{fill:#fff;}.d{fill:#e3edff;}.e{clip-path:url(#a);}.f{fill:#534741;}.g{opacity:0.3;}.h{clip-path:url(#b);}</style><clipPath id="a"><ellipse class="a" cx="253" cy="149.5" rx="223" ry="65.5"/></clipPath><clipPath id="b"><ellipse class="a" cx="253" cy="122.5" rx="203.23" ry="38.5"/></clipPath></defs><title>coffee</title><path class="b" d="M522.62,417.51l-54.24,13.4c-50.74,12.53-91.88-14.15-91.88-59.61V251.06c0-45.45,41.14-92.46,91.88-105l54.24-13.4c50.74-12.54,91.88,14.15,91.88,59.61V312.5C614.5,358,573.36,405,522.62,417.51Z"/><ellipse class="c" cx="253" cy="95.5" rx="223" ry="65.5"/><path class="c" d="M496,545.5c0,19.66-14.2,33.65-26.12,41.92-13,9-31,17-53.56,23.58-43.9,12.9-101.9,20-163.32,20s-119.42-7.1-163.32-20c-22.54-6.62-40.56-14.55-53.56-23.58C24.2,579.15,10,565.16,10,545.5V95H496Z"/><path class="c" d="M253,181c-61.42,0-119.42-7.1-163.32-20-22.54-6.62-40.56-14.55-53.56-23.58C24.2,129.15,10,115.16,10,95.5S24.2,61.85,36.12,53.58c13-9,31-17,53.56-23.58C133.58,17.1,191.58,10,253,10s119.42,7.1,163.32,20c22.54,6.62,40.56,14.55,53.56,23.58C481.8,61.85,496,75.84,496,95.5s-14.2,33.65-26.12,41.92c-13,9-31,17-53.56,23.58C372.42,173.9,314.42,181,253,181Z"/><ellipse class="d" cx="253" cy="95.5" rx="223" ry="65.5"/><g class="e"><ellipse class="f" cx="253" cy="95.5" rx="223" ry="65.5"/></g><g class="g"><g class="h"><rect class="c" x="141.19" y="-90.86" width="67" height="304" transform="translate(37.38 -62.96) rotate(22.82)"/><rect class="c" x="222.2" y="-61.19" width="26" height="304" transform="translate(53.62 -84.1) rotate(22.82)"/></g></g></svg>