<svg viewBox="0 0 641 641" xmlns="http://www.w3.org/2000/svg" xmlns:xlink="http://www.w3.org/1999/xlink"><clipPath id="a"><ellipse cx="253" cy="149.5" rx="223" ry="65.5"/></clipPath><clipPath id="b"><ellipse cx="253" cy="122.5" rx="203.23" ry="38.5"/></clipPath><path d="m522.62 417.51-54.24 13.4c-50.74 12.53-91.88-14.15-91.88-59.61v-120.24c0-45.45 41.14-92.46 91.88-105l54.24-13.4c50.74-12.54 91.88 14.15 91.88 59.61v120.23c0 45.5-41.14 92.5-91.88 105.01z" fill="none" stroke="#fff" stroke-linecap="round" stroke-miterlimit="10" stroke-width="33.13"/><g fill="#fff"><ellipse cx="253" cy="95.5" rx="223" ry="65.5"/><path d="m496 545.5c0 19.66-14.2 33.65-26.12 41.92-13 9-31 17-53.56 23.58-43.9 12.9-101.9 20-163.32 20s-119.42-7.1-163.32-20c-22.54-6.62-40.56-14.55-53.56-23.58-11.92-8.27-26.12-22.26-26.12-41.92v-450.5h486z"/><path d="m253 181c-61.42 0-119.42-7.1-163.32-20-22.54-6.62-40.56-14.55-53.56-23.58-11.92-8.27-26.12-22.26-26.12-41.92s14.2-33.65 26.12-41.92c13-9 31-17 53.56-23.58 43.9-12.9 101.9-20 163.32-20s119.42 7.1 163.32 20c22.54 6.62 40.56 14.55 53.56 23.58 11.92 8.27 26.12 22.26 26.12 41.92s-14.2 33.65-26.12 41.92c-13 9-31 17-53.56 23.58-43.9 12.9-101.9 20-163.32 20z"/></g><ellipse cx="253" cy="95.5" fill="#e3edff" rx="223" ry="65.5"/><g clip-path="url(#a)"><ellipse cx="253" cy="95.5" fill="#534741" rx="223" ry="65.5"/></g><g clip-path="url(#b)" fill="#fff" opacity=".3"><path d="m141.19-90.86h67v304h-67z" transform="matrix(.92172783 .38783735 -.38783735 .92172783 37.38 -62.96)"/><path d="m222.2-61.19h26v304h-26z" transform="matrix(.92172783 .38783735 -.38783735 .92172783 53.62 -84.1)"/></g></svg>