<?xml version="1.0" encoding="UTF-8"?>
<svg width="24px" height="24px" viewBox="0 0 24 24" version="1.1" xmlns="http://www.w3.org/2000/svg" xmlns:xlink="http://www.w3.org/1999/xlink">
    <!-- Generator: sketchtool 50.2 (55047) - http://www.bohemiancoding.com/sketch -->
    <title>8EB8CD9A-34CE-4D8C-A4FE-365E11BAD315-520-000056A8444E1016</title>
    <desc>Created with sketchtool.</desc>
    <defs></defs>
    <g id="Page-1" stroke="none" stroke-width="1" fill="none" fill-rule="evenodd">
        <g id="Contact" transform="translate(-333.000000, -1539.000000)">
            <g id="component-/-footer-copy-2" transform="translate(0.000000, 1501.000000)">
                <g id="Group" transform="translate(130.000000, 38.000000)">
                    <g id="icon-/-mail-copy" transform="translate(203.000000, 0.000000)">
                        <g id="Page-1" fill="#26E88A">
                            <path d="M12,0 C18.6375003,0 24,5.3624997 24,12 C24,18.6375003 18.6375003,24 12,24 C5.36250004,24 0,18.6375003 0,12 C0,5.36250004 5.3624997,0 12,0 Z M17.9999991,5.99999982 L5.99999982,5.99999982 C5.17499994,5.99999982 4.5074999,6.67499985 4.5074999,7.49999973 L4.49999991,16.4999992 C4.49999991,17.3249994 5.17499994,17.9999991 5.99999982,17.9999991 L17.9999991,17.9999991 C18.8249993,17.9999991 19.499999,17.3249994 19.499999,16.4999992 L19.499999,7.49999973 C19.499999,6.67499985 18.8249993,5.99999982 17.9999991,5.99999982 Z M17.9999991,8.99999964 L11.9999995,12.7499994 L5.99999982,8.99999964 L5.99999982,7.49999973 L11.9999995,11.2499995 L17.9999991,7.49999973 L17.9999991,8.99999964 Z" id="Combined-Shape"></path>
                        </g>
                        <g id="Group" transform="translate(3.000000, 3.000000)" stroke="#000000" stroke-opacity="0.00784313771" stroke-width="1.33333335e-11">
                            <polygon id="Stroke-1" points="0 0 17.9999989 0 17.9999989 17.9999989 0 17.9999989"></polygon>
                        </g>
                    </g>
                </g>
            </g>
        </g>
    </g>
</svg>