<?xml version="1.0" encoding="UTF-8"?>
<svg width="24px" height="24px" viewBox="0 0 24 24" version="1.1" xmlns="http://www.w3.org/2000/svg" xmlns:xlink="http://www.w3.org/1999/xlink">
    <!-- Generator: sketchtool 50.2 (55047) - http://www.bohemiancoding.com/sketch -->
    <title>DEDC223A-0F7D-4258-A2D7-B92D934D161A-520-000056A844508465</title>
    <desc>Created with sketchtool.</desc>
    <defs></defs>
    <g id="Page-1" stroke="none" stroke-width="1" fill="none" fill-rule="evenodd">
        <g id="Contact" transform="translate(-1198.000000, -1539.000000)">
            <g id="component-/-footer-copy-2" transform="translate(0.000000, 1501.000000)">
                <g id="Group" transform="translate(1154.000000, 38.000000)">
                    <g id="icon-/-phone" transform="translate(44.000000, 0.000000)">
                        <g id="Page-1">
                            <polygon id="Stroke-1" stroke-opacity="0.00784313771" stroke="#000000" stroke-width="1.33333335e-11" points="0 0 24.0000003 0 24.0000003 24.0000003 0 24.0000003"></polygon>
                            <path d="M12,0 C5.3624997,0 0,5.36250004 0,12 C0,18.6375003 5.36250004,24 12,24 C18.6375003,24 24,18.6375003 24,12 C24,5.3624997 18.6375003,0 12,0 Z M16.125,6.14999985 L14.1375003,6.14999985 C13.7250008,6.14999985 13.3500008,6.5625 13.3500008,6.8624997 L13.3500008,8.9249997 L16.1250014,8.9249997 C16.0125017,10.5 15.7875008,11.9624999 15.7875008,11.9624999 L13.3125014,11.9624999 L13.3125014,20.9625006 L9.63750169,20.9625006 L9.63750169,12 L7.87500143,12 L7.87500143,8.96249985 L9.67500112,8.96249985 L9.67500112,6.4874997 C9.67500112,6.0374994 9.60000082,2.99999964 13.4250011,2.99999964 L16.1250014,2.99999964 L16.1250014,6.14999914 L16.125,6.14999985 Z" id="Fill-2" fill="#26E88A"></path>
                        </g>
                    </g>
                </g>
            </g>
        </g>
    </g>
</svg>