<?xml version="1.0" encoding="UTF-8"?>
<svg width="24px" height="24px" viewBox="0 0 24 24" version="1.1" xmlns="http://www.w3.org/2000/svg" xmlns:xlink="http://www.w3.org/1999/xlink">
    <!-- Generator: sketchtool 50.2 (55047) - http://www.bohemiancoding.com/sketch -->
    <title>04165760-8AE7-4363-840E-8BD71C7E79CD-520-000217FF58F17AD1</title>
    <desc>Created with sketchtool.</desc>
    <defs></defs>
    <g id="Tech" stroke="none" stroke-width="1" fill="none" fill-rule="evenodd">
        <g id="Dark-light" transform="translate(-130.000000, -3391.000000)">
            <g id="component-/-footer-copy-2" transform="translate(0.000000, 3353.000000)">
                <g id="Group" transform="translate(130.000000, 38.000000)">
                    <g id="icon-/-phone-copy-4">
                        <g id="Page-1" fill="#26E88A">
                            <path d="M12,0 C18.6375003,0 24,5.3624997 24,12 C24,18.6375003 18.6375003,24 12,24 C5.36250004,24 0,18.6375003 0,12 C0,5.36250004 5.3624997,0 12,0 Z M12,2 C6.477997,2 2,6.5898 2,12.2529 C2,16.7832 4.864998,20.627 8.838997,21.9819 C9.337997,22.0771 9.522003,21.7598 9.522003,21.4888 C9.522003,21.2451 9.513,20.437 9.508003,19.5801 C6.725998,20.2002 6.139,18.3701 6.139,18.3701 C5.683998,17.1851 5.028999,16.8701 5.028999,16.8701 C4.122002,16.2339 5.097,16.2471 5.097,16.2471 C6.100998,16.3188 6.629997,17.3042 6.629997,17.3042 C7.522003,18.8711 8.970001,18.418 9.540001,18.1558 C9.629997,17.4932 9.889,17.041 10.175003,16.7852 C7.954002,16.5259 5.619003,15.646 5.619003,11.7178 C5.619003,10.5981 6.010002,9.6841 6.649002,8.9658 C6.545998,8.707 6.203003,7.6641 6.746002,6.252 C6.746002,6.252 7.585999,5.9771 9.497002,7.3032 C10.294998,7.0762 11.150002,6.9619 12,6.958 C12.849998,6.9619 13.706001,7.0762 14.504997,7.3032 C16.414001,5.9771 17.251999,6.252 17.251999,6.252 C17.796997,7.6641 17.454002,8.707 17.349998,8.9658 C17.991997,9.6841 18.379997,10.5981 18.379997,11.7178 C18.379997,15.6558 16.040001,16.5229 13.813004,16.7769 C14.171997,17.0952 14.491997,17.7192 14.491997,18.6748 C14.491997,20.0469 14.480003,21.1509 14.480003,21.4888 C14.480003,21.7622 14.660004,22.082 15.167,21.981 C19.138,20.624 22,16.7822 22,12.2529 C22,6.5898 17.523003,2 12,2 Z" id="Combined-Shape"></path>
                        </g>
                        <g id="Group" transform="translate(3.000000, 3.000000)" stroke="#000000" stroke-opacity="0.00784313771" stroke-width="1.33333335e-11">
                            <polygon id="Stroke-1" points="0 0 18 0 18 18 0 18"></polygon>
                        </g>
                    </g>
                </g>
            </g>
        </g>
    </g>
</svg>