<?xml version="1.0" encoding="UTF-8"?>
<svg width="58px" height="63px" viewBox="0 0 58 63" version="1.1" xmlns="http://www.w3.org/2000/svg" xmlns:xlink="http://www.w3.org/1999/xlink">
    <!-- Generator: sketchtool 50.2 (55047) - http://www.bohemiancoding.com/sketch -->
    <title>CB48DB94-D9E5-48B8-8558-7A335354E2B0-520-000217FF560ECA08</title>
    <desc>Created with sketchtool.</desc>
    <defs></defs>
    <g id="Tech" stroke="none" stroke-width="1" fill="none" fill-rule="evenodd">
        <g id="Dark-light" transform="translate(-539.000000, -861.000000)">
            <g id="Group-5" transform="translate(65.000000, 861.000000)">
                <g id="element-/-icon-with-text-copy" transform="translate(474.000000, 0.000000)">
                    <g id="element-/-icon-with-text">
                        <g id="icon-/-flame">
                            <g id="Group-5">
                                <ellipse id="Oval-4-Copy" fill="#26E88A" opacity="0.300000012" cx="27.0833333" cy="27.5" rx="27.0833333" ry="27.5"></ellipse>
                                <g id="clipboard-line" transform="translate(9.848485, 10.000000)" fill="#000000" fill-rule="nonzero">
                                    <path d="M44.8718839,7.77777778 L41.3636348,7.77777778 L41.3636348,10.8888889 L44.4276078,10.8888889 L44.4276078,49.7777778 L10.7239055,49.7777778 L10.7239055,10.8888889 L13.7878784,10.8888889 L13.7878784,7.77777778 L10.7239055,7.77777778 C9.96501514,7.66632751 9.19544667,7.89015609 8.60975895,8.39267618 C8.02407123,8.89519626 7.67832582,9.62830702 7.65993256,10.4066667 L7.65993256,50.26 C7.66398371,50.9613541 7.94226551,51.632347 8.43355658,52.125362 C8.92484764,52.6183769 9.5889021,52.8930266 10.2796294,52.8888889 L44.8718839,52.8888889 C45.5626112,52.8930266 46.2266656,52.6183769 46.7179567,52.125362 C47.2092478,51.632347 47.4875296,50.9613541 47.4915807,50.26 L47.4915807,10.4066667 C47.4875296,9.7053126 47.2092478,9.03431962 46.7179567,8.54130471 C46.2266656,8.04828979 45.5626112,7.77364003 44.8718839,7.77777778 Z" id="Shape"></path>
                                    <path d="M39.83165,11.4022222 C39.823258,9.40403705 38.230031,7.78629894 36.2621214,7.77777778 L33.5045456,7.77777778 C32.8102955,5.02457694 30.3670506,3.09891049 27.5680976,3.09891049 C24.7691446,3.09891049 22.3258998,5.02457694 21.6316497,7.77777778 L18.8893938,7.77777778 C16.9214841,7.78629894 15.3282572,9.40403705 15.3198651,11.4022222 L15.3198651,17.1111111 L39.83165,17.1111111 L39.83165,11.4022222 Z M36.767676,14 L18.3838382,14 L18.3838382,11.4022222 C18.3838382,11.2660778 18.437102,11.1355094 18.531912,11.0392407 C18.6267221,10.9429721 18.7553121,10.8888889 18.8893938,10.8888889 L24.5117841,10.8888889 L24.5117841,9.33333333 C24.5117841,7.61511411 25.8835716,6.22222222 27.5757571,6.22222222 C29.2679426,6.22222222 30.6397301,7.61511411 30.6397301,9.33333333 L30.6397301,10.8888889 L36.2621204,10.8888889 C36.5413311,10.8888889 36.767676,11.1187161 36.767676,11.4022222 L36.767676,14 Z" id="Shape"></path>
                                    <rect id="Rectangle-path" x="16.8518514" y="21.7777778" width="21.4478123" height="3.11111111"></rect>
                                    <rect id="Rectangle-path" x="16.8518514" y="28" width="21.4478123" height="3.11111111"></rect>
                                    <rect id="Rectangle-path" x="16.8518514" y="34.2222222" width="21.4478123" height="3.11111111"></rect>
                                    <rect id="Rectangle-path" x="16.8518514" y="40.4444444" width="21.4478123" height="3.11111111"></rect>
                                    <rect id="Rectangle-path" fill-opacity="0" x="0" y="0" width="55.1515152" height="56"></rect>
                                </g>
                            </g>
                        </g>
                    </g>
                </g>
            </g>
        </g>
    </g>
</svg>