<?xml version="1.0" encoding="UTF-8"?>
<svg width="24px" height="24px" viewBox="0 0 24 24" version="1.1" xmlns="http://www.w3.org/2000/svg" xmlns:xlink="http://www.w3.org/1999/xlink">
    <!-- Generator: sketchtool 50.2 (55047) - http://www.bohemiancoding.com/sketch -->
    <title>53354744-F2C0-4A09-8D97-91688612D41A-520-000056A8444F5E40</title>
    <desc>Created with sketchtool.</desc>
    <defs></defs>
    <g id="Page-1" stroke="none" stroke-width="1" fill="none" fill-rule="evenodd">
        <g id="Contact" transform="translate(-1286.000000, -1539.000000)">
            <g id="component-/-footer-copy-2" transform="translate(0.000000, 1501.000000)">
                <g id="Group" transform="translate(1154.000000, 38.000000)">
                    <g id="icon-/-phone-copy-2" transform="translate(132.000000, 0.000000)">
                        <g id="Page-1">
                            <polygon id="Stroke-1" stroke-opacity="0.00784313771" stroke="#000000" stroke-width="1.33333335e-11" points="0 0 24.0000003 0 24.0000003 24.0000003 0 24.0000003"></polygon>
                            <path d="M12,0 C5.3624997,0 0,5.36250004 0,12 C0,18.6375003 5.36250004,24 12,24 C18.6375003,24 24,18.6375003 24,12 C24,5.3624997 18.6375003,0 12,0 Z M19.5,15.0374994 C19.5,17.5124988 17.5125003,19.5 15.0374994,19.5 L8.96249914,19.5 C6.52499914,19.5 4.57499921,17.5499997 4.49999925,15.1500006 L4.49999925,8.85000082 C4.57499921,6.41250082 6.56249925,4.50000071 8.96249914,4.50000071 L15.0374994,4.50000071 C17.5124988,4.50000071 19.5,6.48750113 19.5,8.96250056 L19.5,15.0375008 L19.5,15.0374994 Z M15.0374994,6 L8.96249914,6 C7.31249925,6 5.99999925,7.3125 5.99999925,8.96249985 L5.99999925,15.0374994 C5.99999925,16.6875 7.31249925,18 8.96249914,18 L15.0374994,18 C16.6875,18 18,16.6875 18,15.0374994 L18,8.96249914 C18,7.3499994 16.6500006,5.99999925 15.0374994,5.99999925 L15.0374994,6 Z M12.1875,16.125 C10.0125003,16.125 8.25,14.3624997 8.25,12.1875 C8.25,10.0125003 10.0125003,8.25 12.1875,8.25 C14.3624997,8.25 16.125,10.0125003 16.125,12.1875 C16.125,14.3624997 14.3624997,16.125 12.1875,16.125 Z M15.9375,9 C15.4124994,9 15,8.58749985 15,8.0625 C15,7.53750011 15.4124994,7.125 15.9375,7.125 C16.4625006,7.125 16.875,7.53750011 16.875,8.0625 C16.875,8.58749985 16.4625006,9 15.9375,9 Z" id="Fill-2" fill="#26E88A"></path>
                            <path d="M14.5875006,12.1875 C14.5874991,12.8502416 14.3531842,13.4159274 13.8845558,13.8845558 C13.4159274,14.3531842 12.8502416,14.5874991 12.1875,14.5875006 C11.5247576,14.5874991 10.9590719,14.3531842 10.4904427,13.8845558 C10.0218136,13.4159274 9.7874994,12.8502416 9.78750011,12.1875 C9.7874994,11.5247576 10.0218136,10.9590718 10.4904427,10.4904427 C10.9590719,10.0218136 11.5247576,9.7874994 12.1875,9.78750011 C12.8502416,9.7874994 13.4159274,10.0218136 13.8845558,10.4904427 C14.3531842,10.9590718 14.5874991,11.5247576 14.5875006,12.1875 Z" id="Fill-3" fill="#26E88A"></path>
                        </g>
                    </g>
                </g>
            </g>
        </g>
    </g>
</svg>