<?xml version="1.0" encoding="UTF-8"?>
<svg width="60px" height="60px" viewBox="0 0 60 60" version="1.1" xmlns="http://www.w3.org/2000/svg" xmlns:xlink="http://www.w3.org/1999/xlink">
    <!-- Generator: Sketch 50.2 (55047) - http://www.bohemiancoding.com/sketch -->
    <title>Laravel logo</title>
    <desc>Created with Sketch.</desc>
    <defs>
        <polygon id="path-1" points="0 0 60 0 60 60 0 60"></polygon>
    </defs>
    <g id="Tech" stroke="none" stroke-width="1" fill="none" fill-rule="evenodd">
        <g id="Dark-light" transform="translate(-130.000000, -502.000000)">
            <g id="logo-fullcolor" transform="translate(130.000000, 502.000000)">
                <g id="Laravel-logo">
                    <g id="Group-3">
                        <mask id="mask-2" fill="white">
                            <use xlink:href="#path-1"></use>
                        </mask>
                        <g id="Clip-2"></g>
                        <polygon id="Stroke-1" stroke-opacity="0.0117647061" stroke="#000000" stroke-width="1.33333336e-11" mask="url(#mask-2)" points="0 0 60.0000009 0 60.0000009 60.0000009 0 60.0000009"></polygon>
                    </g>
                    <g id="Group-7" transform="translate(0.468750, 0.468750)" fill="#FD4F31">
                        <path d="M7.4690625,0.33703125 C6.94078134,0.37828125 6.42187491,0.37171875 5.91046884,0.511875 C4.79156255,0.81890625 3.79734366,1.30968745 2.9203125,2.06625 C2.40468755,2.51062495 1.95468755,2.98968764 1.57265625,3.55406241 C0.982968797,4.42546875 0.58125,5.3620313 0.379687453,6.41624986 C0.4603125,6.55734347 0.545156203,6.70546847 0.63515625,6.85593727 C1.20656245,7.81125 1.77843755,8.76 2.35124991,9.71437453 L3.85687486,12.2179683 C4.31999981,12.9895308 4.78218736,13.7615616 5.24437486,14.5331241 L7.404375,18.1368741 C7.89515625,18.9562495 8.38640578,19.7760933 8.87765578,20.5949986 C9.5934375,21.7879664 10.3110938,22.9799991 11.025937,24.1734356 L13.6551567,28.5660909 C14.4131255,29.8312462 15.1725,31.0954641 15.9318745,32.3596861 L16.0331245,32.506875 C16.1432808,32.5420298 16.230937,32.5120317 16.321875,32.4904669 C17.322187,32.2504664 18.3225005,32.0118712 19.3228125,31.7728116 C20.9451558,31.3851534 22.5675005,30.9989048 24.1898438,30.6107784 L26.730938,30.0028111 C28.3710947,29.6109366 30.0117197,29.2199995 31.6518759,28.8271861 C33.3098461,28.4306236 34.9673438,28.0321866 36.6257822,27.6351553 C37.4639081,27.4340611 38.3020308,27.2339058 39.140625,27.0337486 C40.7629683,26.6465611 42.3853111,26.2603106 44.0076577,25.8740616 L49.3082822,24.6117173 L49.5946884,24.5343731 L49.5164072,24.3792164 L48.0698456,22.3345294 L46.641097,20.3118736 L45.1129711,18.1537486 L43.6523475,16.0851539 L42.2048484,14.0409352 L40.710472,11.9282789 C40.2225028,11.2392164 39.733597,10.5510914 39.2451595,9.86249766 L38.4731269,8.77218516 C38.3550023,8.60484141 38.2607817,8.42437219 38.1979716,8.22890391 C38.0451609,7.75499766 38.2195331,7.43952891 38.4960975,7.20656006 C38.6751614,7.05515386 38.8814091,6.94405987 39.1045331,6.87843516 C39.4153153,6.78702905 39.7289086,6.69937266 40.0467216,6.63937256 C40.6837533,6.51890381 41.3250019,6.41671612 41.9643797,6.3103102 L44.1318797,5.95687284 C44.5889105,5.881404 45.0454725,5.80218539 45.5025066,5.72484164 C46.1235989,5.61984169 46.7446945,5.51437275 47.3662556,5.41077914 C47.9695378,5.30952928 48.5728167,5.20921645 49.1760994,5.10984155 L51.1509417,4.7868727 L52.5215686,4.55671636 C53.0428181,4.46952895 53.5635994,4.38281002 54.0843811,4.29749742 C54.7340691,4.19156002 55.3832888,4.08468469 56.0329734,3.98296594 C56.4201595,3.92249733 56.8073489,3.90140353 57.1917234,4.01202858 C57.4800038,4.09499733 57.7425061,4.22999737 57.986723,4.40249742 L58.3246922,4.63827877 C58.3584417,4.56046613 58.3096931,4.518279 58.2871913,4.47374761 C57.7996908,3.48702909 57.1350037,2.63859136 56.2903153,1.93218516 C55.5051577,1.27499766 54.6234403,0.791716359 53.6484398,0.483747703 C53.0723475,0.301403906 52.4803163,0.386247703 51.8775023,0.340778906 M25.6354683,59.0625 C25.6064058,59.0625 25.5806245,58.8515639 25.547812,58.7957813 C24.844687,57.5957822 24.1340625,56.3076567 23.4393741,55.103438 C22.5642173,53.5856259 21.6970308,52.0631255 20.8345308,50.5378139 C19.9134366,48.9075028 19.0003111,47.2725 18.08625,45.6384375 C17.2171875,44.0849986 16.3509375,42.5301577 15.4851563,40.975313 C14.9624991,40.0354706 14.443125,39.0937509 13.9209375,38.1534398 L13.7821875,37.9382836 L13.5281255,37.9884408 C13.025625,38.118285 12.5240625,38.2490658 12.0225005,38.3812523 C11.324063,38.5650014 10.6260942,38.7520336 9.92718797,38.9343773 C8.35828172,39.3426595 6.78937556,39.7485961 5.22046922,40.155473 C3.62484413,40.5698489 1.96218788,40.9851586 0.366094266,41.3976609 C0.269063002,41.4225052 0.468750563,41.4309417 5.578125e-07,41.4473498 L5.578125e-07,51.3590672 C0.19312553,51.6665663 0.174844322,51.5217234 0.187031831,51.6229748 C0.224063081,51.9164123 0.284063091,52.2121955 0.335625609,52.5028181 C0.528750563,53.5856297 0.963281859,54.5770383 1.59140691,55.4798484 C2.51250075,56.8045341 3.73921931,57.7514114 5.24203195,58.3307864 C5.77875047,58.5370373 6.33890705,58.6823489 6.91171959,58.7526619 L7.49343844,58.9064133" id="Fill-4"></path>
                        <path d="M1.86374991,35.9728111 C3.71015625,35.5335937 5.55703102,35.0948419 7.40343703,34.6565616 C8.21437406,34.4643722 9.02578078,34.2745294 9.83671828,34.0814067 C10.2421866,33.9848433 10.6485933,33.8929687 11.0507808,33.7842178 C11.4089058,33.6876548 11.4529683,33.5690616 11.2687495,33.2460914 C11.0024991,32.7792155 10.731562,32.3151539 10.4620303,31.849687 L8.08827984,27.7621866 L5.71546734,23.6742173 C4.91062359,22.2876548 4.10484239,20.9010923 3.29953017,19.5149981 C2.60999902,18.3290611 1.92046767,17.1431227 1.23140508,15.9571856 C0.933280125,15.4443722 0.571405078,14.9301553 0.271873847,14.4178106 C0.216092616,14.3245294 0.468748875,14.2129664 -1.14375e-06,14.1632794 L-1.14375e-06,36.3801525 C-1.14375e-06,36.3651539 0.212342611,36.3524972 0.284061356,36.3351525 L1.86374878,35.9728073 L1.86374991,35.9728111 Z M58.6987495,51.8531264 C57.975,52.1104716 57.2507822,52.3696875 56.5274977,52.6289072 C54.8798419,53.2195331 53.2321856,53.8101553 51.5845298,54.40125 C50.6690597,54.7298419 49.7554673,55.0621889 48.8395284,55.3893755 C46.972965,56.0554683 45.1054645,56.7192183 43.2384361,57.3839058 C42.1565616,57.7692173 41.0742188,58.2454669 39.9928092,58.6326562 C39.6965573,58.7390616 39.4045294,59.0625 39.1110919,59.0625 L51.5282784,59.0625 L51.7954659,58.9092173 C52.1114053,58.8956236 52.4221838,58.801875 52.7324977,58.7451553 C54.0070294,58.5121856 55.1484347,57.9609384 56.1595275,57.1551562 C56.9362448,56.535938 57.5681198,55.7789077 58.0631198,54.9154688 C58.5721814,54.0267206 58.874527,53.065313 59.0198386,52.0556259 C59.0324948,51.9684398 59.0596819,51.8695308 58.9865578,51.7795336 C58.8834323,51.7715658 58.7924944,51.8198456 58.6987458,51.8531264 L58.6987495,51.8531264 Z M57.6323423,35.1792206 C57.0848428,34.4301581 56.535938,33.6825014 55.989375,32.9329706 C55.2351558,31.8984389 54.4823456,30.8629702 53.7290634,29.8279702 C53.4229697,29.4079702 53.1126558,28.9912514 52.8140616,28.566563 C52.7240611,28.4385952 52.6214039,28.4043755 52.4812495,28.4423447 L52.4010942,28.4653134 C51.0145317,28.8023456 49.6275009,29.1384389 48.2404697,29.4745322 L45.7551563,30.0778125 C44.134687,30.4710923 42.5137495,30.8648442 40.8932803,31.2585928 C39.290625,31.6481245 37.6879692,32.038125 36.0848414,32.4267159 L31.087028,33.6370289 C29.4478083,34.0349972 27.8095275,34.4343708 26.1707784,34.8328116 L21.4167164,35.9868731 C20.5790611,36.1903097 19.7414034,36.3928092 18.9046847,36.5971861 C18.7814034,36.6271875 18.6487467,36.634687 18.5174972,36.7340611 L18.6295275,36.9473433 C19.3312472,38.1595303 20.032965,39.3712486 20.7365583,40.5824981 C21.5329655,41.954062 22.3298391,43.3251534 23.12859,44.6953116 C24.007028,46.2014044 24.8878078,47.7065634 25.767653,49.2121875 C26.2734337,50.0770317 26.7759347,50.942813 27.2859333,51.8053116 C27.852652,52.7634356 28.4212462,53.7196861 28.998277,54.6717169 C29.1712458,54.9562491 29.3676516,55.2281213 29.5654641,55.4962491 C29.6981194,55.6753134 29.8621847,55.8281241 30.0557756,55.9448433 C30.2554645,56.0653139 30.4706203,56.1032794 30.6974958,56.0521852 C30.8146833,56.0254669 30.9295284,55.9870289 31.0429645,55.9476544 L31.4601516,55.7929659 C32.9774953,55.2740588 34.4943703,54.7551548 36.0121823,54.2381217 C37.1962453,53.8349963 38.3817136,53.4337448 39.5667136,53.0329655 C40.7428088,52.6340602 41.9198372,52.2370289 43.0964006,51.8399977 L46.5998377,50.6568717 C47.7942108,50.253278 48.9881194,49.8496842 50.1820242,49.4451534 C51.6473363,48.9478111 53.11218,48.4485914 54.5784295,47.9521861 C55.9917103,47.4740625 57.4063969,46.99875 58.8201497,46.5215602 C58.9068675,46.4924991 59.0024934,46.4803111 59.0742122,46.3851534 L59.083117,46.1793708 C59.0835858,43.2473409 59.0826488,40.3148391 59.0859281,37.3828088 C59.0859281,37.2262467 59.0442108,37.0996856 58.9504589,36.9735895 C58.5060848,36.3787472 58.0706156,35.7778073 57.6323353,35.1792131 L57.6323423,35.1792206 Z M57.3890625,7.55203125 C57.0599986,7.13531255 56.6409375,7.00312523 56.127187,7.13718741 C55.9035947,7.19578116 55.6739044,7.23281264 55.4460919,7.27453083 C54.6989034,7.41140578 53.9507784,7.5459375 53.2035933,7.68140578 C52.1095313,7.88015578 51.0159375,8.08078031 49.921875,8.27765531 C49.055625,8.43328078 48.1889067,8.58656203 47.3221884,8.73843656 L43.8450014,9.34687453 C43.6992216,9.37218703 43.5520327,9.39749906 43.4114063,9.44249953 C43.2065644,9.50812406 43.1474986,9.63656203 43.2412505,9.82921875 C43.3176577,9.98671875 43.4128116,10.137187 43.5159375,10.2787495 C44.2349981,11.2696875 44.9573423,12.2582808 45.6796861,13.2473438 C46.6753111,14.6109366 47.6714048,15.974062 48.6674986,17.3367192 C49.5103097,18.4898438 50.3540611,19.6429683 51.1973442,20.7956259 C51.8601572,21.7012505 52.5229706,22.6068755 53.1867206,23.5120331 L53.3175014,23.6704711 L59.0695308,22.2487523 L59.0831245,21.9506264 C59.0835928,17.9610942 59.0826558,13.9715644 59.0859352,9.98156391 C59.0859352,9.80531391 59.0432775,9.66375141 58.9321838,9.52406391 C58.4484352,8.91328266 57.9735909,8.29546969 57.4949958,7.68046969 L57.3890592,7.55203219 L57.3890625,7.55203125 Z M58.9364077,26.8837505 C58.0664063,27.0928125 57.1931255,27.2915625 56.3020313,27.5273447 C56.3962481,27.694688 58.840313,30.9937514 58.9823447,31.1503134 L59.0714086,31.1995341 L59.0812542,30.9984398 L59.0817225,29.6095345 C59.0821908,28.8037528 59.0840648,27.9979725 59.0821908,27.1921903 C59.0821908,27.0942216 59.1098466,26.9887519 59.0423475,26.8893778 L58.9364109,26.8837523 L58.9364077,26.8837505 Z" id="Fill-6"></path>
                    </g>
                </g>
            </g>
        </g>
    </g>
</svg>