<?xml version="1.0" encoding="UTF-8"?>
<svg width="24px" height="24px" viewBox="0 0 24 24" version="1.1" xmlns="http://www.w3.org/2000/svg" xmlns:xlink="http://www.w3.org/1999/xlink">
    <!-- Generator: sketchtool 50.2 (55047) - http://www.bohemiancoding.com/sketch -->
    <title>8F7FC229-4E6F-4BB1-A9EB-69F8D1038E2A-520-000056A84450D9FC</title>
    <desc>Created with sketchtool.</desc>
    <defs></defs>
    <g id="Page-1" stroke="none" stroke-width="1" fill="none" fill-rule="evenodd">
        <g id="Contact" transform="translate(-1154.000000, -1539.000000)">
            <g id="component-/-footer-copy-2" transform="translate(0.000000, 1501.000000)">
                <g id="Group" transform="translate(1154.000000, 38.000000)">
                    <g id="icon-/-phone-copy">
                        <g id="Page-1">
                            <polygon id="Stroke-1" stroke-opacity="0.00784313771" stroke="#000000" stroke-width="1.33333335e-11" points="0 0 24.0000003 0 24.0000003 24.0000003 0 24.0000003"></polygon>
                            <path d="M12,0 C5.3624997,0 0,5.36250004 0,12 C0,18.6375003 5.36250004,24 12,24 C18.6375003,24 24,18.6375003 24,12 C24,5.3624997 18.6375003,0 12,0 Z M6.375,6.375 C6.60000011,6.1124997 6.9375,6 7.3125,6 C7.6875,6 8.02499985,6.1124997 8.25,6.375 C8.47500011,6.63750026 8.625,6.9375 8.625,7.3125 C8.625,7.6875 8.51250026,7.9874997 8.25,8.25 C8.02499985,8.51250026 7.6875,8.625 7.27499985,8.625 C6.89999985,8.625 6.5625,8.51250026 6.33749985,8.25 C6.1124997,7.9874997 6,7.6875 6,7.3125 C6,6.9375 6.1124997,6.63750026 6.375,6.375 Z M8.625,17.625 L6,17.625 L6,9.75 L8.625,9.75 L8.625,17.625 Z M18.375,17.625 L15.6749997,17.625 L15.6749997,13.5 C15.6749997,12.9749994 15.5625,12.5250006 15.3374991,12.2249994 C15.1124997,11.9249997 14.7749991,11.7749991 14.2874994,11.7749991 C13.9499988,11.7749991 13.6499991,11.8499994 13.4249997,12.0374994 C13.2000003,12.2249994 13.0125003,12.4499988 12.8999991,12.7124991 C12.8249988,12.8624997 12.8249988,13.0874991 12.8249988,13.3499994 L12.8249988,17.625 L10.1249985,17.625 L10.1249985,9.9375 L12.8249988,9.9375 L12.8249988,11.0249999 C12.9374985,10.875 13.0499983,10.7250001 13.1624994,10.6124997 C13.2749991,10.5 13.4249997,10.3499994 13.6124997,10.1999996 C13.7999997,10.0499997 14.0625,9.93749925 14.3250003,9.8624997 C14.625,9.7874994 14.9249997,9.75 15.2625003,9.75 C16.2000003,9.75 16.9500003,10.0499997 17.5125003,10.6499999 C18.0750003,11.25 18.375,12.1124997 18.375,13.2374997 L18.375,17.625 Z" id="Fill-2" fill="#26E88A"></path>
                        </g>
                    </g>
                </g>
            </g>
        </g>
    </g>
</svg>