<?xml version="1.0" encoding="UTF-8"?>
<svg width="24px" height="24px" viewBox="0 0 24 24" version="1.1" xmlns="http://www.w3.org/2000/svg" xmlns:xlink="http://www.w3.org/1999/xlink">
    <!-- Generator: sketchtool 50.2 (55047) - http://www.bohemiancoding.com/sketch -->
    <title>80B5B2C7-CA26-4413-A045-18499A5FBB4D-520-000056A8444DB14C</title>
    <desc>Created with sketchtool.</desc>
    <defs></defs>
    <g id="Page-1" stroke="none" stroke-width="1" fill="none" fill-rule="evenodd">
        <g id="Contact" transform="translate(-513.000000, -1539.000000)" fill="#26E88A">
            <g id="component-/-footer-copy-2" transform="translate(0.000000, 1501.000000)">
                <g id="Group" transform="translate(130.000000, 38.000000)">
                    <g id="icon-/-phone-copy-3" transform="translate(383.000000, 0.000000)">
                        <g id="Page-1">
                            <path d="M12,0 C18.6375003,0 24,5.3624997 24,12 C24,18.6375003 18.6375003,24 12,24 C5.36250004,24 0,18.6375003 0,12 C0,5.36250004 5.3624997,0 12,0 Z M11.9999995,4.49999991 C9.09749972,4.49999991 6.74999978,6.84749985 6.74999978,9.74999959 C6.74999978,13.6874994 11.9999995,19.499999 11.9999995,19.499999 C11.9999995,19.499999 17.2499991,13.6874994 17.2499991,9.74999959 C17.2499991,6.84749985 14.9024991,4.49999991 11.9999995,4.49999991 Z M11.9999995,11.6249995 C10.9649994,11.6249995 10.1249996,10.7849996 10.1249996,9.74999959 C10.1249996,8.71499957 10.9649994,7.87499971 11.9999995,7.87499971 C13.0349995,7.87499971 13.8749993,8.71499957 13.8749993,9.74999959 C13.8749993,10.7849996 13.0349995,11.6249995 11.9999995,11.6249995 Z" id="Combined-Shape"></path>
                        </g>
                    </g>
                </g>
            </g>
        </g>
    </g>
</svg>