<svg xmlns="http://www.w3.org/2000/svg" xmlns:xlink="http://www.w3.org/1999/xlink" viewBox="0 0 570 144"><defs><style>.a{opacity:0.1;}.b{fill:url(#a);}.c{fill:#202d3a;}</style><linearGradient id="a" x1="22.84" y1="23.43" x2="86.47" y2="87.07" gradientUnits="userSpaceOnUse"><stop offset="0" stop-color="#8bf17f"/><stop offset="1" stop-color="#26e88a"/></linearGradient></defs><title>Logo FC</title><ellipse class="a" cx="54.66" cy="128.75" rx="28" ry="5"/><circle class="b" cx="54.66" cy="55.25" r="45"/><path class="c" d="M138.72,38.43V52.65h24.89v10H138.72v19.6H126.27V28.45h40.64v10Z"/><path class="c" d="M193.46,79.54a26.92,26.92,0,0,1-10.53-10,27.23,27.23,0,0,1-3.8-14.25,27.24,27.24,0,0,1,3.8-14.26,26.82,26.82,0,0,1,10.53-9.94,33.2,33.2,0,0,1,30.15,0A26.87,26.87,0,0,1,238,55.34a26.9,26.9,0,0,1-14.37,24.2,33.28,33.28,0,0,1-30.15,0Zm23.7-9.18a15.74,15.74,0,0,0,6-6.11,17.94,17.94,0,0,0,2.19-8.91,18,18,0,0,0-2.19-8.92,15.71,15.71,0,0,0-6-6.1,18,18,0,0,0-17.21,0,15.71,15.71,0,0,0-6,6.1,18,18,0,0,0-2.19,8.92,17.94,17.94,0,0,0,2.19,8.91,15.74,15.74,0,0,0,6,6.11,18,18,0,0,0,17.21,0Z"/><path class="c" d="M289.3,82.23l-10.37-15H267.48v15H255V28.45h23.27a29.84,29.84,0,0,1,12.41,2.38,18.48,18.48,0,0,1,8.11,6.76A18.67,18.67,0,0,1,301.67,48a17.53,17.53,0,0,1-11.06,17l12.06,17.29ZM286.15,41c-1.95-1.62-4.79-2.42-8.53-2.42H267.48V57.33h10.14c3.74,0,6.58-.81,8.53-2.45A8.55,8.55,0,0,0,289.07,48,8.5,8.5,0,0,0,286.15,41Z"/><path class="c" d="M344.23,63.17V82.23H331.79V63L311,28.45h13.21l14.37,23.89,14.36-23.89h12.22Z"/><path class="c" d="M410.15,70.7h-25l-4.76,11.53H367.67l24-53.78h12.29L428,82.23H414.91Zm-3.92-9.45L397.7,40.66l-8.52,20.59Z"/><path class="c" d="M475.53,82.23l-10.37-15H453.71v15H441.26V28.45h23.28A29.84,29.84,0,0,1,477,30.83a18.48,18.48,0,0,1,8.11,6.76A18.67,18.67,0,0,1,487.9,48a17.53,17.53,0,0,1-11.06,17L488.9,82.23ZM472.38,41c-1.95-1.62-4.79-2.42-8.53-2.42H453.71V57.33h10.14c3.74,0,6.58-.81,8.53-2.45A8.55,8.55,0,0,0,475.3,48,8.5,8.5,0,0,0,472.38,41Z"/><path class="c" d="M505.42,28.45h24.43a34.33,34.33,0,0,1,15.48,3.34,25.06,25.06,0,0,1,10.45,9.41,26.52,26.52,0,0,1,3.72,14.14,26.49,26.49,0,0,1-3.72,14.13,25,25,0,0,1-10.45,9.41,34.33,34.33,0,0,1-15.48,3.35H505.42ZM529.23,72q8.07,0,12.87-4.5t4.8-12.17q0-7.68-4.8-12.18t-12.87-4.5H517.86V72Z"/></svg>