<?xml version="1.0" encoding="UTF-8"?>
<svg width="24px" height="24px" viewBox="0 0 24 24" version="1.1" xmlns="http://www.w3.org/2000/svg" xmlns:xlink="http://www.w3.org/1999/xlink">
    <!-- Generator: sketchtool 50.2 (55047) - http://www.bohemiancoding.com/sketch -->
    <title>4BB27183-DC9E-4D05-81C7-4E28E0AD007A-520-000056A8444EA66D</title>
    <desc>Created with sketchtool.</desc>
    <defs></defs>
    <g id="Page-1" stroke="none" stroke-width="1" fill="none" fill-rule="evenodd">
        <g id="Contact" transform="translate(-130.000000, -1539.000000)">
            <g id="component-/-footer-copy-2" transform="translate(0.000000, 1501.000000)">
                <g id="Group" transform="translate(130.000000, 38.000000)">
                    <g id="icon-/-phone-copy-4">
                        <g id="Page-1" fill="#26E88A">
                            <path d="M12,0 C18.6375003,0 24,5.3624997 24,12 C24,18.6375003 18.6375003,24 12,24 C5.36250004,24 0,18.6375003 0,12 C0,5.36250004 5.3624997,0 12,0 Z M15.0769231,4 L8.92307692,4 C7.86153837,4 7,4.81454537 7,5.81818182 L7,18.1818182 C7,19.1854539 7.86153837,20 8.92307692,20 L15.0769231,20 C16.1384608,20 17,19.1854539 17,18.1818182 L17,5.81818182 C17,4.81454537 16.1384608,4 15.0769231,4 Z M12,19.2727273 C11.3615385,19.2727273 10.8461538,18.7854545 10.8461538,18.1818182 C10.8461538,17.5781818 11.3615385,17.0909091 12,17.0909091 C12.6384615,17.0909091 13.1538462,17.5781818 13.1538462,18.1818182 C13.1538462,18.7854545 12.6384615,19.2727273 12,19.2727273 Z M15.4615385,16.3636364 L8.53846154,16.3636364 L8.53846154,6.18181818 L15.4615385,6.18181818 L15.4615385,16.3636364 Z" id="Combined-Shape"></path>
                        </g>
                        <g id="Group" transform="translate(3.000000, 3.000000)" stroke="#000000" stroke-opacity="0.00784313771" stroke-width="1.33333335e-11">
                            <polygon id="Stroke-1" points="0 0 18 0 18 18 0 18"></polygon>
                        </g>
                    </g>
                </g>
            </g>
        </g>
    </g>
</svg>