<?xml version="1.0" encoding="UTF-8"?>
<svg width="24px" height="24px" viewBox="0 0 24 24" version="1.1" xmlns="http://www.w3.org/2000/svg" xmlns:xlink="http://www.w3.org/1999/xlink">
    <!-- Generator: sketchtool 50.2 (55047) - http://www.bohemiancoding.com/sketch -->
    <title>BC5D1C0B-BBE1-48E2-87CD-EBD3AB21FE12-520-000056A844501B5E</title>
    <desc>Created with sketchtool.</desc>
    <defs></defs>
    <g id="Page-1" stroke="none" stroke-width="1" fill="none" fill-rule="evenodd">
        <g id="Contact" transform="translate(-1242.000000, -1539.000000)">
            <g id="component-/-footer-copy-2" transform="translate(0.000000, 1501.000000)">
                <g id="Group" transform="translate(1154.000000, 38.000000)">
                    <g id="icon-/-mail" transform="translate(88.000000, 0.000000)">
                        <g id="Page-1">
                            <polygon id="Stroke-1" stroke-opacity="0.00784313771" stroke="#000000" stroke-width="1.33333335e-11" points="0 0 24.0000003 0 24.0000003 24.0000003 0 24.0000003"></polygon>
                            <path d="M12,0 C5.3624997,0 0,5.36250004 0,12 C0,18.6375003 5.36250004,24 12,24 C18.6375003,24 24,18.6375003 24,12 C24,5.3624997 18.6375003,0 12,0 Z M18.2625003,9.1875 L18.2625003,9.60000011 C18.2625003,13.8375006 15,18.75 9.07500026,18.75 C7.23750041,18.75 5.55000041,18.2249994 4.12500034,17.2874994 C4.38750026,17.3249988 4.65000019,17.3249988 4.91250011,17.3249988 C6.41250011,17.3249988 7.83750056,16.7999983 8.9249997,15.9374985 C7.5,15.8999991 6.33749985,14.9624991 5.9249997,13.6874985 C6.1124997,13.724998 6.33749985,13.7624988 6.52499985,13.7624988 C6.82499955,13.7624988 7.08749985,13.7249994 7.38749955,13.6499991 C5.9249997,13.3499994 4.7999997,12.0374994 4.7999997,10.4999993 C5.24999963,10.7249994 5.7374997,10.8749993 6.26249955,10.9124994 C5.39999948,10.3499994 4.83749948,9.33749914 4.83749948,8.24999925 C4.83749948,7.64999914 4.98749933,7.08749914 5.2874994,6.63749884 C6.89999914,8.58749914 9.26249955,9.86249899 11.9624991,10.0124988 C11.924999,9.78749869 11.8874988,9.52499914 11.8874988,9.26249884 C11.8874988,7.49999854 13.3499994,6.03749869 15.1124983,6.03749869 C16.0499983,6.03749869 16.8749985,6.41249869 17.474998,7.04999899 C18.224998,6.89999914 18.8999977,6.63749884 19.537498,6.26249884 C19.2749977,7.01249884 18.787498,7.64999914 18.1124983,8.06249854 C18.7499985,7.98749828 19.3874988,7.79999828 19.9499988,7.53749869 C19.4249983,8.13749884 18.8999991,8.73749899 18.2624988,9.18749854 L18.2625003,9.1875 Z" id="Fill-2" fill="#26E88A"></path>
                        </g>
                    </g>
                </g>
            </g>
        </g>
    </g>
</svg>